<svg xmlns="http://www.w3.org/2000/svg" xmlns:xlink="http://www.w3.org/1999/xlink" width="80" height="80" viewBox="0 0 80 80">
  <defs>
    <style>
      .cls-1, .cls-3 {
        fill: #e14f36;
      }

      .cls-1 {
        stroke: #707070;
      }

      .cls-2 {
        clip-path: url(#clip-path);
      }
    </style>
    <clipPath id="clip-path">
      <rect id="Rechteck_9" data-name="Rechteck 9" class="cls-1" width="80" height="80" transform="translate(408 1210)"/>
    </clipPath>
  </defs>
  <g id="Gruppe_maskieren_3" data-name="Gruppe maskieren 3" class="cls-2" transform="translate(-408 -1210)">
    <g id="_003-brainstorming" data-name="003-brainstorming" transform="translate(408 1210)">
      <path id="Pfad_50" data-name="Pfad 50" class="cls-3" d="M77.923,56.051a7.737,7.737,0,1,0-8.885.938A10.052,10.052,0,0,0,64.423,64.6l-.52,6.286H57.339a3.871,3.871,0,1,0,0,7.742H62.5V83.79H84.435V65.428A10.03,10.03,0,0,0,77.923,56.051Zm-5.1-10.97a5.161,5.161,0,1,1-5.161,5.161A5.166,5.166,0,0,1,72.823,45.081ZM81.855,81.21H65.081V78.629h.448a6.418,6.418,0,0,0,6.425-5.867l.863-9.5-2.57-.234-.863,9.5a3.851,3.851,0,0,1-3.854,3.52h-8.19a1.29,1.29,0,1,1,0-2.581H63.9a2.57,2.57,0,0,0,2.57-2.357l.521-6.3a7.443,7.443,0,0,1,14.861.614Z" transform="translate(-4.435 -3.79)"/>
      <path id="Pfad_51" data-name="Pfad 51" class="cls-3" d="M28.468,70.887l-6.563.01-.521-6.3a10.059,10.059,0,0,0-4.615-7.612,7.749,7.749,0,1,0-8.885-.938,10.03,10.03,0,0,0-6.512,9.377V83.79H23.306V78.629h5.161a3.871,3.871,0,0,0,0-7.742ZM12.984,45.081a5.161,5.161,0,1,1-5.161,5.161A5.166,5.166,0,0,1,12.984,45.081ZM28.468,76.048h-8.19a3.851,3.851,0,0,1-3.854-3.52l-.863-9.5-2.57.234.863,9.5a6.418,6.418,0,0,0,6.425,5.867h.448V81.21H3.952V65.428a7.444,7.444,0,0,1,14.862-.614l.521,6.307A2.567,2.567,0,0,0,21.9,73.468h6.564a1.29,1.29,0,1,1,0,2.581Z" transform="translate(-1.371 -3.79)"/>
      <path id="Pfad_52" data-name="Pfad 52" class="cls-3" d="M53.744,48.037c.134-.293.258-.587.369-.884l3.387-.926V39.1l-3.387-.926c-.111-.3-.234-.591-.369-.884l1.742-3.053-2.048-2.048a3.769,3.769,0,0,0,.191-1.137A3.857,3.857,0,0,0,51.6,27.666l3.15-6.3A13.931,13.931,0,0,0,56.1,16.855H58.06l4.6,7.67,4.257-7.1a1.182,1.182,0,0,1,2.195.609v9.141h2.581V18.037A3.762,3.762,0,0,0,64.705,16.1l-2.044,3.406-3.141-5.234H56.163a13.824,13.824,0,0,0-13.77-12.9h-.754a13.824,13.824,0,0,0-13.77,12.9H24.512l-3.141,5.234L19.327,16.1a3.762,3.762,0,0,0-6.988,1.935v9.141h2.581V18.037a1.181,1.181,0,0,1,2.195-.608l4.257,7.1,4.6-7.67h1.956a13.912,13.912,0,0,0,1.352,4.512l3.15,6.3A3.857,3.857,0,0,0,30.4,31.048a3.785,3.785,0,0,0,.191,1.138l-2.048,2.048,1.742,3.053c-.134.293-.258.587-.369.884l-3.387.925v7.13l3.387.925c.111.3.235.591.369.884l-1.742,3.053,5.043,5.043,3.053-1.742c.293.134.587.258.884.369l.925,3.387h7.13l.925-3.387c.3-.111.591-.235.884-.369l3.053,1.742,5.043-5.043Zm-6.566-5.375a5.161,5.161,0,1,1-10.106-1.483,8.984,8.984,0,0,0,9.888,0A5.153,5.153,0,0,1,47.177,42.661Zm-12.9-12.9H49.758a1.29,1.29,0,1,1,0,2.581H34.274a1.29,1.29,0,1,1,0-2.581Zm7.742,10.323a6.464,6.464,0,0,1-6.321-5.161H48.337A6.464,6.464,0,0,1,42.016,40.081ZM30.4,15.188A11.248,11.248,0,0,1,41.639,3.952h.754a11.238,11.238,0,0,1,10.05,16.262l-3.483,6.964H43.306V20.543a5.161,5.161,0,1,0-2.581,0v6.635H35.072l-3.483-6.964A11.308,11.308,0,0,1,30.4,15.188Zm11.613,2.957A2.581,2.581,0,1,1,44.6,15.565,2.583,2.583,0,0,1,42.016,18.145Zm7.995,34.769-2.554-1.457-.627.33a10.3,10.3,0,0,1-1.769.738l-.677.209-.772,2.83H40.42l-.774-2.83-.677-.209a10.3,10.3,0,0,1-1.77-.738l-.626-.33L34.02,52.913l-2.258-2.257L33.219,48.1l-.33-.627a10.3,10.3,0,0,1-.738-1.769l-.209-.677-2.828-.772V41.065l2.83-.774.209-.677a10.3,10.3,0,0,1,.738-1.77l.33-.626-1.455-2.552.387-.387a3.859,3.859,0,0,0,.9.425,8.987,8.987,0,0,0,1.973,4.639,7.742,7.742,0,1,0,13.977,0A8.993,8.993,0,0,0,50.979,34.7a3.883,3.883,0,0,0,.9-.425l.387.387-1.455,2.552.33.626a10.359,10.359,0,0,1,.738,1.77l.209.677,2.83.774v3.192l-2.83.773-.209.677a10.287,10.287,0,0,1-.738,1.769l-.33.627,1.457,2.554Z" transform="translate(-2.016 -1.371)"/>
      <path id="Pfad_53" data-name="Pfad 53" class="cls-3" d="M72.661,37.016h2.581V39.6H72.661Z" transform="translate(-5.565 -3.468)"/>
      <path id="Pfad_54" data-name="Pfad 54" class="cls-3" d="M72.661,31.532h2.581v2.581H72.661Z" transform="translate(-5.565 -3.145)"/>
      <path id="Pfad_55" data-name="Pfad 55" class="cls-3" d="M12.339,37.016h2.581V39.6H12.339Z" transform="translate(-2.016 -3.468)"/>
      <path id="Pfad_56" data-name="Pfad 56" class="cls-3" d="M12.339,31.532h2.581v2.581H12.339Z" transform="translate(-2.016 -3.145)"/>
    </g>
  </g>
</svg>
