<svg xmlns="http://www.w3.org/2000/svg" xmlns:xlink="http://www.w3.org/1999/xlink" width="80" height="80" viewBox="0 0 80 80">
  <defs>
    <style>
      .cls-1, .cls-3 {
        fill: #e14f36;
      }

      .cls-1 {
        stroke: #707070;
      }

      .cls-2 {
        clip-path: url(#clip-path);
      }
    </style>
    <clipPath id="clip-path">
      <rect id="Rechteck_9" data-name="Rechteck 9" class="cls-1" width="80" height="80" transform="translate(408 1210)"/>
    </clipPath>
  </defs>
  <g id="Gruppe_maskieren_2" data-name="Gruppe maskieren 2" class="cls-2" transform="translate(-408 -1210)">
    <g id="_001-data" data-name="001-data" transform="translate(408 1210.043)">
      <path id="Pfad_20" data-name="Pfad 20" class="cls-3" d="M9.538,30.469a1.171,1.171,0,0,0,1.656-1.656L8.351,25.97l2.843-2.842a1.171,1.171,0,0,0-1.656-1.656L5.867,25.143a1.171,1.171,0,0,0,0,1.656Zm0,0" transform="translate(-0.325 -1.321)"/>
      <path id="Pfad_21" data-name="Pfad 21" class="cls-3" d="M21.934,25.97l-2.843,2.843a1.171,1.171,0,1,0,1.656,1.656L24.418,26.8a1.17,1.17,0,0,0,0-1.655l-3.671-3.671a1.171,1.171,0,0,0-1.655,1.656Zm0,0" transform="translate(-1.103 -1.321)"/>
      <path id="Pfad_22" data-name="Pfad 22" class="cls-3" d="M13.429,30.731a1.171,1.171,0,0,0,1.518-.662l2.884-7.342a1.171,1.171,0,1,0-2.179-.856l-2.885,7.342a1.171,1.171,0,0,0,.662,1.518Zm0,0" transform="translate(-0.746 -1.321)"/>
      <path id="Pfad_23" data-name="Pfad 23" class="cls-3" d="M7.4,38.569h7.888a1.171,1.171,0,0,0,0-2.342H7.4a1.171,1.171,0,0,0,0,2.342Zm0,0" transform="translate(-0.366 -2.209)"/>
      <path id="Pfad_24" data-name="Pfad 24" class="cls-3" d="M34.215,36.227H20.348a1.171,1.171,0,0,0,0,2.342H34.215a1.171,1.171,0,1,0,0-2.342Zm0,0" transform="translate(-1.128 -2.209)"/>
      <path id="Pfad_25" data-name="Pfad 25" class="cls-3" d="M7.4,43.816h3.36a1.171,1.171,0,0,0,0-2.342H7.4a1.171,1.171,0,0,0,0,2.342Zm0,0" transform="translate(-0.366 -2.518)"/>
      <path id="Pfad_26" data-name="Pfad 26" class="cls-3" d="M30.53,41.474a1.171,1.171,0,0,0,0,2.342h2.046a1.171,1.171,0,1,0,0-2.342Zm0,0" transform="translate(-1.727 -2.518)"/>
      <path id="Pfad_27" data-name="Pfad 27" class="cls-3" d="M26.555,42.645a1.171,1.171,0,0,0-1.171-1.171H15.334a1.171,1.171,0,0,0,0,2.342h10.05A1.171,1.171,0,0,0,26.555,42.645Zm0,0" transform="translate(-0.833 -2.518)"/>
      <path id="Pfad_28" data-name="Pfad 28" class="cls-3" d="M35.478,42.645a1.171,1.171,0,0,0,1.171,1.171h3.832a1.171,1.171,0,1,0,0-2.342H36.649A1.171,1.171,0,0,0,35.478,42.645Zm0,0" transform="translate(-2.087 -2.518)"/>
      <path id="Pfad_29" data-name="Pfad 29" class="cls-3" d="M28.63,27.125h4.042a1.171,1.171,0,1,0,0-2.342H28.63a1.171,1.171,0,1,0,0,2.342Zm0,0" transform="translate(-1.615 -1.536)"/>
      <path id="Pfad_30" data-name="Pfad 30" class="cls-3" d="M37.736,27.125H62.4a1.171,1.171,0,0,0,0-2.342H37.736a1.171,1.171,0,1,0,0,2.342Zm0,0" transform="translate(-2.151 -1.536)"/>
      <path id="Pfad_31" data-name="Pfad 31" class="cls-3" d="M59.338,30.256H49.346a1.171,1.171,0,0,0,0,2.342h9.992a1.171,1.171,0,0,0,0-2.342Zm0,0" transform="translate(-2.834 -1.858)"/>
      <path id="Pfad_32" data-name="Pfad 32" class="cls-3" d="M45.151,30.256H41.716a1.171,1.171,0,0,0,0,2.342h3.434a1.171,1.171,0,0,0,0-2.342Zm0,0" transform="translate(-2.385 -1.858)"/>
      <path id="Pfad_33" data-name="Pfad 33" class="cls-3" d="M28.63,32.6h8.414a1.171,1.171,0,0,0,0-2.342H28.63a1.171,1.171,0,1,0,0,2.342Zm0,0" transform="translate(-1.615 -1.858)"/>
      <path id="Pfad_34" data-name="Pfad 34" class="cls-3" d="M25.535,46.677H17.648a1.171,1.171,0,1,0,0,2.341h7.887a1.171,1.171,0,1,0,0-2.341Zm0,0" transform="translate(-0.969 -2.824)"/>
      <path id="Pfad_35" data-name="Pfad 35" class="cls-3" d="M13.459,46.677H7.4a1.171,1.171,0,1,0,0,2.341h6.06a1.171,1.171,0,0,0,0-2.341Zm0,0" transform="translate(-0.366 -2.824)"/>
      <path id="Pfad_36" data-name="Pfad 36" class="cls-3" d="M40.575,46.677h-10.3a1.171,1.171,0,1,0,0,2.341h10.3a1.171,1.171,0,0,0,0-2.341Zm0,0" transform="translate(-1.712 -2.824)"/>
      <path id="Pfad_37" data-name="Pfad 37" class="cls-3" d="M55.671,40.287H50.037a1.171,1.171,0,0,0,0,2.342h5.634a1.171,1.171,0,0,0,0-2.342Zm0,0" transform="translate(-2.874 -2.448)"/>
      <path id="Pfad_38" data-name="Pfad 38" class="cls-3" d="M66.411,42.629h7.954a1.171,1.171,0,1,0,0-2.342H66.411a1.171,1.171,0,0,0,0,2.342Zm0,0" transform="translate(-3.838 -2.448)"/>
      <path id="Pfad_39" data-name="Pfad 39" class="cls-3" d="M62.072,40.287H60.249a1.171,1.171,0,1,0,0,2.342h1.823a1.171,1.171,0,0,0,0-2.342Zm0,0" transform="translate(-3.475 -2.448)"/>
      <path id="Pfad_40" data-name="Pfad 40" class="cls-3" d="M50.037,56.185h5.634a1.171,1.171,0,0,0,0-2.341H50.037a1.171,1.171,0,0,0,0,2.341Zm0,0" transform="translate(-2.874 -3.245)"/>
      <path id="Pfad_41" data-name="Pfad 41" class="cls-3" d="M66.411,56.185h7.954a1.171,1.171,0,1,0,0-2.341H66.411a1.171,1.171,0,0,0,0,2.341Zm0,0" transform="translate(-3.838 -3.245)"/>
      <path id="Pfad_42" data-name="Pfad 42" class="cls-3" d="M60.249,56.185h1.823a1.171,1.171,0,1,0,0-2.341H60.249a1.171,1.171,0,1,0,0,2.341Zm0,0" transform="translate(-3.475 -3.245)"/>
      <path id="Pfad_43" data-name="Pfad 43" class="cls-3" d="M55.671,67.4H50.037a1.171,1.171,0,1,0,0,2.341h5.634a1.171,1.171,0,1,0,0-2.341Zm0,0" transform="translate(-2.874 -4.043)"/>
      <path id="Pfad_44" data-name="Pfad 44" class="cls-3" d="M74.365,67.4H66.411a1.171,1.171,0,0,0,0,2.341h7.954a1.171,1.171,0,1,0,0-2.341Zm0,0" transform="translate(-3.838 -4.043)"/>
      <path id="Pfad_45" data-name="Pfad 45" class="cls-3" d="M62.072,67.4H60.249a1.171,1.171,0,1,0,0,2.341h1.823a1.171,1.171,0,0,0,0-2.341Zm0,0" transform="translate(-3.475 -4.043)"/>
      <path id="Pfad_46" data-name="Pfad 46" class="cls-3" d="M74.848.083H5.153A5.159,5.159,0,0,0,0,5.236V61.888A5.159,5.159,0,0,0,5.153,67.04H9.559a1.171,1.171,0,1,0,0-2.341H5.153a2.814,2.814,0,0,1-2.811-2.811V57.446H45v2.018h-.928a2.305,2.305,0,0,0-2.3,2.3V64.7H16.678a1.171,1.171,0,0,0,0,2.341H27.935v4.2H24.4a4.282,4.282,0,0,0-4.277,4.277v2.529A1.953,1.953,0,0,0,22.075,80H57.837a1.953,1.953,0,0,0,1.951-1.951V75.516a4.282,4.282,0,0,0-4.277-4.277H51.976v-1.48H73.621a2.3,2.3,0,0,0,2.3-2.3v-.551a5.16,5.16,0,0,0,3.988-5.018L80,5.236A5.158,5.158,0,0,0,74.848.083ZM44.109,54.659V49.046H73.582v5.612ZM47.339,46.7V44.241H70.351V46.7ZM70.351,57v2.464H47.339V57ZM30.277,67.04h11.49v.417a2.3,2.3,0,0,0,2.3,2.3h5.565v1.48H30.277Zm25.235,6.541a1.937,1.937,0,0,1,1.935,1.935v2.139H22.465V75.516A1.937,1.937,0,0,1,24.4,73.581Zm18.07-6.164H44.108V61.806H73.582Zm3.988-5.53a2.812,2.812,0,0,1-1.646,2.555V61.766a2.305,2.305,0,0,0-2.3-2.3h-.928V57.446H77.57Zm0-6.783H75.885c.024-.132.038-6.1.038-6.1a2.305,2.305,0,0,0-2.3-2.3h-.928V44.241h.928a2.306,2.306,0,0,0,2.3-2.3v-5.69a2.306,2.306,0,0,0-2.3-2.3H67.008a1.171,1.171,0,0,0,0,2.342h6.574V41.9H44.108V36.287H59.723a1.171,1.171,0,0,0,0-2.342H44.069a2.305,2.305,0,0,0-2.3,2.3v5.69a2.305,2.305,0,0,0,2.3,2.3H45V46.7h-.928a2.305,2.305,0,0,0-2.3,2.3s.015,5.965.038,6.1H2.342V16.01H77.57Zm0-41.437H2.428V5.236A2.814,2.814,0,0,1,5.239,2.425h69.52A2.814,2.814,0,0,1,77.57,5.236Zm0,0" transform="translate(0 -0.083)"/>
      <path id="Pfad_47" data-name="Pfad 47" class="cls-3" d="M8.96,4.858A3.436,3.436,0,1,0,12.4,8.294,3.439,3.439,0,0,0,8.96,4.858Zm0,4.53a1.094,1.094,0,1,1,1.094-1.094A1.1,1.1,0,0,1,8.96,9.388Zm0,0" transform="translate(-0.325 -0.364)"/>
      <path id="Pfad_48" data-name="Pfad 48" class="cls-3" d="M18.255,4.858A3.436,3.436,0,1,0,21.69,8.294,3.44,3.44,0,0,0,18.255,4.858Zm0,4.53a1.094,1.094,0,1,1,1.094-1.094A1.1,1.1,0,0,1,18.255,9.388Zm0,0" transform="translate(-0.872 -0.364)"/>
      <path id="Pfad_49" data-name="Pfad 49" class="cls-3" d="M27.549,4.858a3.436,3.436,0,1,0,3.436,3.436A3.439,3.439,0,0,0,27.549,4.858Zm0,4.53a1.094,1.094,0,1,1,1.094-1.094A1.1,1.1,0,0,1,27.549,9.388Zm0,0" transform="translate(-1.418 -0.364)"/>
    </g>
  </g>
</svg>
